<svg xmlns="http://www.w3.org/2000/svg" xmlns:xlink="http://www.w3.org/1999/xlink" width="1920" zoomAndPan="magnify" viewBox="0 0 1440 809.999993" height="1080" preserveAspectRatio="xMidYMid meet" version="1.0"><defs><g/><clipPath id="406c41df35"><path d="M 96 363 L 400 363 L 400 761 L 96 761 Z M 96 363 " clip-rule="nonzero"/></clipPath><clipPath id="fc3e3a3d9d"><path d="M 93.824219 375.710938 L 376.789062 358.304688 L 400.597656 745.324219 L 117.632812 762.730469 Z M 93.824219 375.710938 " clip-rule="nonzero"/></clipPath><clipPath id="dcc8375d8d"><path d="M 93.824219 375.710938 L 376.789062 358.304688 L 400.597656 745.324219 L 117.632812 762.730469 Z M 93.824219 375.710938 " clip-rule="nonzero"/></clipPath><clipPath id="29fe49430c"><path d="M 93.824219 375.710938 L 376.789062 358.304688 L 400.597656 745.324219 L 117.632812 762.730469 Z M 93.824219 375.710938 " clip-rule="nonzero"/></clipPath><clipPath id="e38664aae1"><path d="M 176 410 L 327 410 L 327 474 L 176 474 Z M 176 410 " clip-rule="nonzero"/></clipPath><clipPath id="162ac9e493"><path d="M 93.824219 375.710938 L 376.789062 358.304688 L 400.597656 745.324219 L 117.632812 762.730469 Z M 93.824219 375.710938 " clip-rule="nonzero"/></clipPath><clipPath id="2c4816e175"><path d="M 93.824219 375.710938 L 376.789062 358.304688 L 400.597656 745.324219 L 117.632812 762.730469 Z M 93.824219 375.710938 " clip-rule="nonzero"/></clipPath><clipPath id="285f48e09e"><path d="M 93.824219 375.710938 L 376.789062 358.304688 L 400.597656 745.324219 L 117.632812 762.730469 Z M 93.824219 375.710938 " clip-rule="nonzero"/></clipPath><clipPath id="3f64c73526"><path d="M 180 498 L 358 498 L 358 656 L 180 656 Z M 180 498 " clip-rule="nonzero"/></clipPath><clipPath id="f3b01eb710"><path d="M 93.824219 375.710938 L 376.789062 358.304688 L 400.597656 745.324219 L 117.632812 762.730469 Z M 93.824219 375.710938 " clip-rule="nonzero"/></clipPath><clipPath id="7e2a5a09c6"><path d="M 93.824219 375.710938 L 376.789062 358.304688 L 400.597656 745.324219 L 117.632812 762.730469 Z M 93.824219 375.710938 " clip-rule="nonzero"/></clipPath><clipPath id="596d3b0e40"><path d="M 93.824219 375.710938 L 376.789062 358.304688 L 400.597656 745.324219 L 117.632812 762.730469 Z M 93.824219 375.710938 " clip-rule="nonzero"/></clipPath><clipPath id="b308da72ee"><path d="M 248 607 L 343 607 L 343 680 L 248 680 Z M 248 607 " clip-rule="nonzero"/></clipPath><clipPath id="46406f130d"><path d="M 93.824219 375.710938 L 376.789062 358.304688 L 400.597656 745.324219 L 117.632812 762.730469 Z M 93.824219 375.710938 " clip-rule="nonzero"/></clipPath><clipPath id="1131d775d3"><path d="M 93.824219 375.710938 L 376.789062 358.304688 L 400.597656 745.324219 L 117.632812 762.730469 Z M 93.824219 375.710938 " clip-rule="nonzero"/></clipPath><clipPath id="d93a7c1f4a"><path d="M 93.824219 375.710938 L 376.789062 358.304688 L 400.597656 745.324219 L 117.632812 762.730469 Z M 93.824219 375.710938 " clip-rule="nonzero"/></clipPath><clipPath id="07824e51c0"><path d="M 168 718 L 279 718 L 279 736 L 168 736 Z M 168 718 " clip-rule="nonzero"/></clipPath><clipPath id="b0f9c756a1"><path d="M 93.824219 375.710938 L 376.789062 358.304688 L 400.597656 745.324219 L 117.632812 762.730469 Z M 93.824219 375.710938 " clip-rule="nonzero"/></clipPath><clipPath id="4536c686aa"><path d="M 93.824219 375.710938 L 376.789062 358.304688 L 400.597656 745.324219 L 117.632812 762.730469 Z M 93.824219 375.710938 " clip-rule="nonzero"/></clipPath><clipPath id="98d3246917"><path d="M 93.824219 375.710938 L 376.789062 358.304688 L 400.597656 745.324219 L 117.632812 762.730469 Z M 93.824219 375.710938 " clip-rule="nonzero"/></clipPath><clipPath id="d368f52161"><path d="M 288 712 L 364 712 L 364 727 L 288 727 Z M 288 712 " clip-rule="nonzero"/></clipPath><clipPath id="e1b08f4802"><path d="M 93.824219 375.710938 L 376.789062 358.304688 L 400.597656 745.324219 L 117.632812 762.730469 Z M 93.824219 375.710938 " clip-rule="nonzero"/></clipPath><clipPath id="e1068f02de"><path d="M 93.824219 375.710938 L 376.789062 358.304688 L 400.597656 745.324219 L 117.632812 762.730469 Z M 93.824219 375.710938 " clip-rule="nonzero"/></clipPath><clipPath id="e851e35a0a"><path d="M 93.824219 375.710938 L 376.789062 358.304688 L 400.597656 745.324219 L 117.632812 762.730469 Z M 93.824219 375.710938 " clip-rule="nonzero"/></clipPath><clipPath id="3a78e02263"><path d="M 0.71875 0.839844 L 1171 0.839844 L 1171 396 L 0.71875 396 Z M 0.71875 0.839844 " clip-rule="nonzero"/></clipPath><clipPath id="8afd1e04e3"><rect x="0" width="1171" y="0" height="396"/></clipPath><clipPath id="d6ba32f4f8"><path d="M 174 316 L 1180.320312 316 L 1180.320312 768.359375 L 174 768.359375 Z M 174 316 " clip-rule="nonzero"/></clipPath><clipPath id="389726eb61"><rect x="0" width="1007" y="0" height="453"/></clipPath><clipPath id="8a5bff74c9"><rect x="0" width="1181" y="0" height="769"/></clipPath></defs><g clip-path="url(#406c41df35)"><g clip-path="url(#fc3e3a3d9d)"><g clip-path="url(#dcc8375d8d)"><g clip-path="url(#29fe49430c)"><path fill="#000000" d="M 124.613281 732.875 C 124.621094 733.648438 124.652344 734.425781 124.714844 735.207031 C 126.070312 750.1875 138.898438 761.238281 153.925781 760.371094 C 160.113281 760.015625 167.300781 759.589844 175.28125 759.097656 C 237.453125 755.273438 347.078125 747.5625 395.964844 738.222656 C 397.285156 737.976562 398.445312 737.179688 399.148438 736.023438 C 399.851562 734.878906 400.039062 733.488281 399.664062 732.191406 C 395.273438 717.0625 394.273438 702.886719 396.765625 691.207031 C 396.96875 690.234375 396.867188 689.234375 396.484375 688.339844 C 396.476562 688.179688 396.457031 688.015625 396.433594 687.847656 C 394.015625 672.753906 390.953125 630.628906 387.402344 581.855469 C 382.128906 509.398438 375.566406 419.222656 367.65625 367.902344 C 367.308594 365.648438 365.421875 363.960938 363.144531 363.851562 C 295.121094 360.761719 215.527344 366.882812 126.566406 382.039062 C 107.949219 385.210938 95.0625 401.8125 96.597656 420.65625 C 105.210938 526.90625 113.746094 622.769531 124.273438 731.503906 C 124.320312 731.996094 124.433594 732.453125 124.613281 732.875 Z M 153.375 750.824219 C 143.535156 751.398438 135.136719 744.152344 134.253906 734.347656 C 133.808594 729.457031 135.324219 724.710938 138.503906 720.96875 C 141.6875 717.226562 146.136719 714.980469 151.039062 714.625 C 202.824219 710.929688 326.589844 701.871094 386.367188 695.628906 C 385.183594 705.976562 386.113281 717.585938 389.109375 729.753906 C 331.796875 739.761719 205.976562 747.78125 153.375 750.824219 Z M 128.179688 391.480469 C 128.953125 391.34375 129.722656 391.226562 130.488281 391.089844 C 138.734375 488.386719 148.589844 586.863281 159.78125 683.835938 C 160.074219 686.371094 162.304688 688.214844 164.828125 688.058594 C 164.917969 688.054688 165.003906 688.050781 165.089844 688.035156 C 167.71875 687.730469 169.601562 685.363281 169.296875 682.738281 C 158.078125 585.617188 148.214844 486.972656 139.964844 389.527344 C 220.835938 376.382812 296.175781 370.773438 358.792969 373.253906 C 366.390625 424.785156 372.734375 512.078125 377.863281 582.5625 C 381.332031 630.238281 384.121094 668.542969 386.496094 686.007812 C 327.332031 692.234375 202.425781 701.378906 150.363281 705.09375 C 143.363281 705.597656 136.957031 708.640625 132.183594 713.699219 C 122.40625 611.898438 114.316406 520.546875 106.148438 419.894531 C 105.015625 406.023438 114.496094 393.808594 128.179688 391.480469 Z M 128.179688 391.480469 " fill-opacity="1" fill-rule="nonzero"/></g></g></g></g><g clip-path="url(#e38664aae1)"><g clip-path="url(#162ac9e493)"><g clip-path="url(#2c4816e175)"><g clip-path="url(#285f48e09e)"><path fill="#000000" d="M 185.28125 473.566406 C 185.289062 473.5625 185.289062 473.5625 185.296875 473.5625 C 239.707031 470.058594 282.871094 463.679688 322.421875 457.449219 C 324.980469 457.042969 326.746094 454.691406 326.425781 452.132812 L 321.777344 415.164062 C 321.453125 412.574219 319.125 410.710938 316.496094 411.007812 C 272.847656 415.867188 181.296875 425.195312 180.375 425.292969 C 177.890625 425.546875 176.023438 427.660156 176.078125 430.15625 C 176.148438 433.230469 176.835938 460.527344 180.484375 470.457031 C 181.230469 472.425781 183.171875 473.695312 185.28125 473.566406 Z M 185.792969 434.339844 C 203.980469 432.476562 273.582031 425.347656 312.867188 421.019531 L 316.347656 448.71875 C 277.859375 454.75 238.710938 460.378906 188.554688 463.765625 C 186.945312 456.175781 186.113281 442.679688 185.792969 434.339844 Z M 185.792969 434.339844 " fill-opacity="1" fill-rule="nonzero"/></g></g></g></g><g clip-path="url(#3f64c73526)"><g clip-path="url(#f3b01eb710)"><g clip-path="url(#7e2a5a09c6)"><g clip-path="url(#596d3b0e40)"><path fill="#000000" d="M 207.601562 612.996094 C 208.082031 613.113281 208.5625 613.152344 209.035156 613.125 C 211.070312 613 212.878906 611.570312 213.390625 609.488281 C 214.015625 606.925781 212.449219 604.332031 209.878906 603.707031 C 199.75 601.234375 191.539062 591.796875 189.910156 580.777344 C 188.347656 570.214844 192.617188 558.695312 201.046875 550.695312 C 208.898438 543.242188 220.332031 538.777344 232.410156 538.441406 C 239.367188 538.246094 245.347656 539.417969 250.167969 541.917969 C 255.484375 544.671875 259.410156 549.269531 260.683594 554.21875 C 260.871094 554.949219 261.222656 555.597656 261.679688 556.136719 C 239.554688 578.546875 219.925781 603.328125 203.199219 630.035156 C 198.5 637.535156 199.996094 643.40625 201.304688 646.238281 C 203.398438 650.765625 207.953125 654.164062 212.929688 654.898438 C 214.390625 655.109375 215.816406 655.160156 217.226562 655.070312 C 222.78125 654.730469 227.90625 652.300781 232.40625 649.9375 C 263.164062 633.804688 290.726562 612.164062 317.378906 591.234375 C 321.433594 588.046875 326.480469 584.085938 329.007812 578.144531 C 330.773438 573.988281 331.136719 569.214844 330.101562 564.34375 C 337.390625 560.878906 344.269531 556.542969 350.535156 551.453125 C 355.824219 547.160156 357.992188 542.660156 356.976562 538.066406 C 356.089844 534.082031 352.601562 530.894531 348.226562 529.902344 C 348.503906 528.824219 348.660156 527.722656 348.679688 526.601562 C 348.796875 520.320312 344.28125 514.488281 338.40625 513.34375 C 336.335938 512.933594 334.152344 513.164062 332.140625 513.941406 C 332.125 513.847656 332.113281 513.761719 332.089844 513.667969 C 330.785156 505.945312 325.058594 502.507812 320.34375 503.195312 C 314.714844 504.011719 312.335938 509.546875 311.5625 511.367188 C 308.484375 518.527344 306.558594 526.0625 305.796875 533.792969 C 303.8125 532.882812 301.695312 532.246094 299.410156 531.996094 C 289.644531 530.929688 281.398438 537.230469 274.621094 543.550781 C 272.722656 545.3125 270.851562 547.09375 268.988281 548.894531 C 266.472656 542.476562 261.355469 536.949219 254.5625 533.4375 C 251.621094 531.917969 248.40625 530.789062 244.9375 530.03125 C 246.730469 520.363281 245.484375 510.21875 241.378906 501.273438 C 240.730469 499.871094 239.4375 498.855469 237.910156 498.574219 C 236.390625 498.285156 234.8125 498.757812 233.695312 499.832031 C 229.734375 503.652344 226.222656 507.859375 223.195312 512.421875 L 217.046875 503.195312 C 216.125 501.796875 214.53125 500.996094 212.859375 501.066406 C 211.191406 501.144531 209.667969 502.074219 208.863281 503.546875 C 206.28125 508.25 204.609375 513.398438 203.921875 518.691406 C 200.339844 517.554688 196.90625 515.914062 193.792969 513.839844 C 192.339844 512.875 190.480469 512.773438 188.941406 513.570312 C 187.390625 514.367188 186.402344 515.945312 186.355469 517.683594 C 186.101562 526.703125 190.398438 535.566406 197.292969 541.28125 C 196.304688 542.074219 195.347656 542.902344 194.433594 543.765625 C 183.777344 553.863281 178.410156 568.582031 180.421875 582.175781 C 182.632812 596.9375 193.800781 609.613281 207.601562 612.996094 Z M 320.375 515.128906 C 320.929688 513.84375 321.367188 513.191406 321.636719 512.871094 C 322.007812 513.3125 322.492188 514.195312 322.667969 515.253906 C 322.796875 516.011719 322.878906 516.859375 322.960938 517.765625 C 323.214844 520.496094 323.527344 523.894531 325.585938 526.914062 C 326.769531 528.660156 328.96875 529.417969 330.984375 528.785156 C 332.996094 528.148438 334.359375 526.269531 334.324219 524.15625 C 334.320312 523.917969 334.554688 523.566406 334.894531 523.28125 C 335.40625 522.859375 336.09375 522.632812 336.578125 522.722656 C 337.9375 522.992188 339.148438 524.753906 339.125 526.421875 C 339.085938 528.398438 337.667969 530.554688 335.59375 531.796875 C 333.507812 533.054688 332.695312 535.683594 333.71875 537.902344 C 334.742188 540.113281 337.269531 541.203125 339.578125 540.433594 C 341.710938 539.71875 343.910156 538.984375 345.695312 539.152344 C 346.78125 539.253906 347.59375 539.890625 347.640625 540.136719 C 347.707031 540.449219 347.285156 541.777344 344.515625 544.023438 C 339.027344 548.472656 333.027344 552.285156 326.664062 555.375 C 324.453125 551.398438 321.683594 547.976562 319.152344 544.984375 C 317.609375 543.164062 315.9375 541.3125 314.128906 539.601562 C 314.707031 538.863281 315.082031 537.953125 315.148438 536.953125 C 315.628906 529.410156 317.390625 522.066406 320.375 515.128906 Z M 281.164062 550.523438 C 286.070312 545.960938 291.292969 541.773438 296.597656 541.445312 C 297.195312 541.410156 297.785156 541.421875 298.382812 541.488281 C 303.484375 542.046875 307.871094 546.46875 311.84375 551.160156 C 315.375 555.324219 318.058594 558.914062 319.675781 562.855469 C 321.371094 566.996094 321.5625 571.199219 320.210938 574.398438 C 318.644531 578.078125 314.835938 581.066406 311.472656 583.710938 C 285.15625 604.371094 257.945312 625.734375 227.96875 641.46875 C 223.46875 643.828125 218.710938 646.078125 214.347656 645.4375 C 212.871094 645.214844 210.875 644.117188 210.007812 642.230469 C 208.902344 639.839844 210.121094 637.035156 211.328125 635.101562 C 217.652344 625.003906 224.410156 615.1875 231.554688 605.679688 C 231.570312 605.679688 231.585938 605.6875 231.601562 605.683594 C 237.675781 606.46875 243.417969 608.894531 248.21875 612.710938 C 249.183594 613.472656 250.347656 613.808594 251.492188 613.738281 C 252.800781 613.660156 254.0625 613.046875 254.949219 611.945312 C 256.59375 609.878906 256.25 606.867188 254.183594 605.230469 C 249.425781 601.449219 243.9375 598.730469 238.089844 597.222656 C 245.898438 587.367188 254.144531 577.855469 262.804688 568.730469 C 262.847656 568.738281 262.886719 568.75 262.921875 568.757812 C 268.660156 569.679688 274.019531 573.382812 276.910156 578.417969 C 277.847656 580.046875 279.597656 580.921875 281.355469 580.8125 C 282.066406 580.769531 282.777344 580.566406 283.445312 580.1875 C 285.734375 578.875 286.53125 575.949219 285.214844 573.660156 C 281.886719 567.859375 276.566406 563.375 270.382812 560.953125 C 273.914062 557.414062 277.503906 553.933594 281.164062 550.523438 Z M 197.839844 526.644531 C 200.984375 527.878906 204.246094 528.804688 207.558594 529.382812 C 208.957031 529.632812 210.394531 529.234375 211.480469 528.3125 C 212.566406 527.390625 213.179688 526.035156 213.164062 524.617188 C 213.128906 521.726562 213.472656 518.855469 214.171875 516.074219 L 219.472656 524.019531 C 220.40625 525.421875 222.015625 526.234375 223.703125 526.148438 C 225.394531 526.066406 226.90625 525.085938 227.695312 523.59375 C 229.796875 519.59375 232.300781 515.828125 235.152344 512.347656 C 236.4375 517.746094 236.539062 523.410156 235.425781 528.867188 C 234.355469 528.835938 233.269531 528.839844 232.167969 528.867188 C 222.808594 529.132812 213.738281 531.519531 205.90625 535.640625 C 202.414062 533.589844 199.578125 530.363281 197.839844 526.644531 Z M 197.839844 526.644531 " fill-opacity="1" fill-rule="nonzero"/></g></g></g></g><g clip-path="url(#b308da72ee)"><g clip-path="url(#46406f130d)"><g clip-path="url(#1131d775d3)"><g clip-path="url(#d93a7c1f4a)"><path fill="#000000" d="M 319.582031 607.464844 C 314.324219 608.09375 309.027344 610.367188 303.839844 614.214844 C 298.242188 618.367188 294.902344 623.433594 294.265625 628.527344 C 287.496094 627.613281 280.484375 630.828125 275.953125 635.109375 C 275.316406 635.707031 274.730469 636.316406 274.160156 636.894531 C 272.875 638.210938 271.664062 639.460938 270.453125 640.054688 C 269.011719 640.757812 267.035156 640.855469 264.746094 640.957031 C 263.578125 641.011719 262.375 641.070312 261.121094 641.210938 C 255.507812 641.867188 249.484375 645.269531 248.664062 651.40625 C 247.703125 658.546875 249.652344 665.039062 254.300781 670.171875 C 260.921875 677.476562 270.679688 679.824219 277.027344 679.609375 C 277.28125 679.601562 277.546875 679.585938 277.800781 679.570312 C 287.878906 678.949219 297.507812 672.894531 303.613281 663.457031 C 307.0625 664.914062 311.460938 666.136719 316.222656 665.84375 C 317.457031 665.769531 318.707031 665.589844 319.976562 665.292969 C 327.371094 663.539062 333.011719 657.761719 334.011719 650.90625 C 334.292969 648.988281 334.191406 647.175781 334.105469 645.574219 C 334.015625 643.960938 333.945312 642.558594 334.257812 641.542969 C 334.636719 640.3125 335.75 639.039062 337.042969 637.570312 C 338.402344 636.015625 339.941406 634.261719 341.035156 632.023438 C 343.992188 625.949219 342.386719 617.910156 337.210938 612.914062 C 332.855469 608.710938 326.261719 606.664062 319.582031 607.464844 Z M 276.703125 670.070312 C 272.214844 670.21875 265.511719 668.316406 261.398438 663.78125 C 258.660156 660.753906 257.5625 657.03125 258.148438 652.707031 C 258.234375 652.101562 259.898438 651.011719 262.242188 650.738281 C 262.71875 650.683594 263.21875 650.644531 263.734375 650.613281 C 264.214844 650.585938 264.699219 650.5625 265.203125 650.539062 C 268.125 650.398438 271.449219 650.25 274.675781 648.671875 C 277.386719 647.347656 279.332031 645.34375 281.039062 643.585938 C 281.535156 643.078125 282.03125 642.566406 282.542969 642.082031 C 285.972656 638.84375 291.6875 636.625 295.535156 638.902344 C 297.757812 640.21875 299.308594 643.109375 299.496094 646.265625 C 299.675781 649.34375 298.746094 652.773438 296.726562 656.441406 C 292.296875 664.449219 284.472656 669.792969 276.703125 670.070312 Z M 332.433594 627.847656 C 331.902344 628.9375 330.898438 630.074219 329.847656 631.28125 C 328.085938 633.289062 326.089844 635.570312 325.113281 638.757812 C 324.300781 641.402344 324.4375 643.902344 324.558594 646.105469 C 324.628906 647.371094 324.691406 648.566406 324.550781 649.53125 C 324.125 652.449219 321.277344 655.171875 317.773438 656 C 314.859375 656.691406 311.363281 656.265625 307.785156 654.835938 C 308.78125 651.707031 309.210938 648.648438 309.035156 645.671875 C 308.75 640.804688 306.730469 636.289062 303.5625 633.121094 C 303.792969 632.4375 303.875 631.691406 303.761719 630.921875 C 303.183594 626.941406 308.039062 623.003906 309.546875 621.886719 C 313.382812 619.042969 317.140625 617.382812 320.71875 616.953125 C 324.511719 616.496094 328.285156 617.589844 330.570312 619.796875 C 332.78125 621.929688 333.597656 625.460938 332.433594 627.847656 Z M 332.433594 627.847656 " fill-opacity="1" fill-rule="nonzero"/></g></g></g></g><g clip-path="url(#07824e51c0)"><g clip-path="url(#b0f9c756a1)"><g clip-path="url(#4536c686aa)"><g clip-path="url(#98d3246917)"><path fill="#000000" d="M 272.867188 718.355469 L 172.8125 726.378906 C 170.179688 726.589844 168.210938 728.898438 168.421875 731.527344 C 168.628906 734.125 170.882812 736.078125 173.488281 735.917969 C 173.519531 735.917969 173.550781 735.914062 173.574219 735.914062 L 273.628906 727.890625 C 276.261719 727.679688 278.230469 725.371094 278.019531 722.742188 C 277.800781 720.105469 275.53125 718.160156 272.867188 718.355469 Z M 272.867188 718.355469 " fill-opacity="1" fill-rule="nonzero"/></g></g></g></g><g clip-path="url(#d368f52161)"><g clip-path="url(#e1b08f4802)"><g clip-path="url(#e1068f02de)"><g clip-path="url(#e851e35a0a)"><path fill="#000000" d="M 358.042969 712.375 C 358.027344 712.375 358.019531 712.375 358.003906 712.375 L 293.242188 716.894531 C 290.609375 717.082031 288.617188 719.367188 288.800781 722 C 288.988281 724.621094 291.25 726.597656 293.871094 726.4375 C 293.886719 726.4375 293.894531 726.4375 293.910156 726.433594 L 358.671875 721.914062 C 361.304688 721.730469 363.296875 719.445312 363.113281 716.8125 C 362.929688 714.195312 360.664062 712.210938 358.042969 712.375 Z M 358.042969 712.375 " fill-opacity="1" fill-rule="nonzero"/></g></g></g></g><g transform="matrix(1, 0, 0, 1, 162, 27)"><g clip-path="url(#8a5bff74c9)"><g clip-path="url(#3a78e02263)"><g transform="matrix(1, 0, 0, 1, 0, 0.00000000000003908)"><g clip-path="url(#8afd1e04e3)"><g fill="#000000" fill-opacity="0.4"><g transform="translate(20.278935, 332.516507)"><g><path d="M 188.484375 -237.5 C 180.953125 -224.9375 172.847656 -212.367188 164.171875 -199.796875 C 155.503906 -187.234375 145.515625 -176.050781 134.203125 -166.25 C 158.328125 -138.851562 172.023438 -106.179688 175.296875 -68.234375 C 175.796875 -60.941406 174.347656 -55.160156 170.953125 -50.890625 C 167.566406 -46.617188 163.171875 -43.726562 157.765625 -42.21875 C 152.359375 -40.707031 146.765625 -40.707031 140.984375 -42.21875 C 135.210938 -43.726562 130.1875 -46.679688 125.90625 -51.078125 C 121.632812 -55.472656 119.25 -61.191406 118.75 -68.234375 C 117.488281 -81.554688 113.84375 -94.3125 107.8125 -106.5 C 101.78125 -118.6875 93.863281 -129.175781 84.0625 -137.96875 C 81.550781 -106.300781 78.160156 -74.765625 73.890625 -43.359375 C 73.140625 -38.328125 70.816406 -34.113281 66.921875 -30.71875 C 63.023438 -27.332031 58.5 -25.007812 53.34375 -23.75 C 48.1875 -22.488281 43.347656 -22.488281 38.828125 -23.75 C 30.785156 -26.007812 25.253906 -30.46875 22.234375 -37.125 C 19.222656 -43.789062 18.21875 -50.894531 19.21875 -58.4375 C 24 -94.125 27.582031 -129.9375 29.96875 -165.875 C 32.351562 -201.8125 33.671875 -237.875 33.921875 -274.0625 C 33.921875 -281.351562 35.804688 -287.132812 39.578125 -291.40625 C 43.347656 -295.675781 48.0625 -298.566406 53.71875 -300.078125 C 59.375 -301.585938 65.03125 -301.585938 70.6875 -300.078125 C 76.34375 -298.566406 81.050781 -295.675781 84.8125 -291.40625 C 88.582031 -287.132812 90.46875 -281.351562 90.46875 -274.0625 C 90.21875 -261.75 89.96875 -249.5 89.71875 -237.3125 C 89.46875 -225.125 88.96875 -212.875 88.21875 -200.5625 C 95.757812 -204.832031 102.671875 -210.863281 108.953125 -218.65625 C 115.234375 -226.445312 120.882812 -234.613281 125.90625 -243.15625 C 130.9375 -251.695312 135.460938 -259.363281 139.484375 -266.15625 C 143.253906 -272.4375 147.835938 -276.519531 153.234375 -278.40625 C 158.640625 -280.289062 164.171875 -280.414062 169.828125 -278.78125 C 175.484375 -277.144531 180.382812 -274.316406 184.53125 -270.296875 C 188.675781 -266.273438 191.25 -261.375 192.25 -255.59375 C 193.257812 -249.8125 192.003906 -243.78125 188.484375 -237.5 Z M 188.484375 -237.5 "/></g></g></g><g fill="#000000" fill-opacity="0.4"><g transform="translate(231.375819, 332.516507)"><g><path d="M 161.71875 -263.515625 C 162.976562 -270.546875 165.867188 -275.695312 170.390625 -278.96875 C 174.921875 -282.238281 180.007812 -283.875 185.65625 -283.875 C 191.3125 -283.875 196.71875 -282.363281 201.875 -279.34375 C 207.03125 -276.332031 211.050781 -272.1875 213.9375 -266.90625 C 216.832031 -261.625 217.523438 -255.46875 216.015625 -248.4375 C 202.441406 -179.070312 193.140625 -109.203125 188.109375 -38.828125 C 187.609375 -31.796875 185.285156 -26.078125 181.140625 -21.671875 C 176.992188 -17.273438 172.03125 -14.320312 166.25 -12.8125 C 160.46875 -11.3125 154.875 -11.3125 149.46875 -12.8125 C 144.070312 -14.320312 139.613281 -17.210938 136.09375 -21.484375 C 132.570312 -25.753906 131.0625 -31.535156 131.5625 -38.828125 C 132.320312 -50.640625 133.265625 -62.453125 134.390625 -74.265625 C 135.523438 -86.078125 136.71875 -97.890625 137.96875 -109.703125 L 86.328125 -109.703125 C 84.566406 -94.617188 82.804688 -79.597656 81.046875 -64.640625 C 79.285156 -49.691406 77.53125 -34.804688 75.78125 -19.984375 C 74.769531 -12.691406 72.128906 -6.910156 67.859375 -2.640625 C 63.585938 1.628906 58.5625 4.457031 52.78125 5.84375 C 47 7.226562 41.34375 7.226562 35.8125 5.84375 C 30.28125 4.457031 25.878906 1.628906 22.609375 -2.640625 C 19.347656 -6.910156 18.21875 -12.691406 19.21875 -19.984375 C 21.488281 -40.585938 23.878906 -61.253906 26.390625 -81.984375 C 28.898438 -102.722656 31.285156 -123.523438 33.546875 -144.390625 C 34.804688 -154.191406 36 -164.117188 37.125 -174.171875 C 38.257812 -184.222656 39.457031 -194.273438 40.71875 -204.328125 C 41.71875 -213.117188 42.53125 -222.414062 43.15625 -232.21875 C 43.789062 -242.019531 45.742188 -251.066406 49.015625 -259.359375 C 51.523438 -266.148438 55.351562 -271.113281 60.5 -274.25 C 65.65625 -277.394531 71.1875 -278.90625 77.09375 -278.78125 C 83 -278.65625 88.460938 -277.144531 93.484375 -274.25 C 98.515625 -271.363281 102.097656 -267.40625 104.234375 -262.375 C 106.367188 -257.351562 106.054688 -251.320312 103.296875 -244.28125 C 100.273438 -236.238281 98.515625 -227.378906 98.015625 -217.703125 C 97.515625 -208.023438 96.757812 -198.914062 95.75 -190.375 C 95.25 -186.351562 94.742188 -182.332031 94.234375 -178.3125 C 93.734375 -174.289062 93.234375 -170.269531 92.734375 -166.25 L 145.140625 -166.25 C 147.398438 -182.332031 149.910156 -198.539062 152.671875 -214.875 C 155.441406 -231.21875 158.457031 -247.429688 161.71875 -263.515625 Z M 161.71875 -263.515625 "/></g></g></g><g fill="#000000" fill-opacity="0.4"><g transform="translate(466.975003, 332.516507)"><g><path d="M 195.28125 -164.734375 C 196.03125 -139.859375 196.65625 -114.851562 197.15625 -89.71875 C 197.664062 -64.59375 198.296875 -39.460938 199.046875 -14.328125 C 199.296875 -7.035156 197.535156 -1.191406 193.765625 3.203125 C 189.992188 7.597656 185.34375 10.488281 179.8125 11.875 C 174.289062 13.257812 168.703125 13.257812 163.046875 11.875 C 157.390625 10.488281 152.613281 7.597656 148.71875 3.203125 C 144.820312 -1.191406 142.75 -7.035156 142.5 -14.328125 C 142.25 -21.867188 142.0625 -29.34375 141.9375 -36.75 C 141.8125 -44.164062 141.625 -51.644531 141.375 -59.1875 L 84.828125 -61.453125 C 82.816406 -51.898438 80.929688 -42.410156 79.171875 -32.984375 C 77.410156 -23.554688 75.648438 -14.070312 73.890625 -4.53125 C 72.628906 2.757812 69.800781 8.035156 65.40625 11.296875 C 61.007812 14.566406 55.921875 16.140625 50.140625 16.015625 C 44.359375 15.890625 38.890625 14.378906 33.734375 11.484375 C 28.585938 8.597656 24.566406 4.519531 21.671875 -0.75 C 18.785156 -6.03125 17.96875 -12.316406 19.21875 -19.609375 C 23.75 -44.234375 28.835938 -68.609375 34.484375 -92.734375 C 40.140625 -116.859375 48.125 -140.359375 58.4375 -163.234375 C 63.457031 -174.546875 69.863281 -186.734375 77.65625 -199.796875 C 85.445312 -212.867188 94.304688 -224.867188 104.234375 -235.796875 C 114.160156 -246.734375 125.15625 -254.71875 137.21875 -259.75 C 148.53125 -264.519531 157.703125 -265.394531 164.734375 -262.375 C 171.773438 -259.363281 177.304688 -253.960938 181.328125 -246.171875 C 185.347656 -238.378906 188.300781 -229.394531 190.1875 -219.21875 C 192.070312 -209.039062 193.328125 -199.050781 193.953125 -189.25 C 194.585938 -179.445312 195.03125 -171.273438 195.28125 -164.734375 Z M 100.28125 -117.234375 C 107.0625 -116.984375 113.71875 -116.734375 120.25 -116.484375 C 126.789062 -116.234375 133.328125 -115.984375 139.859375 -115.734375 C 139.609375 -124.023438 139.421875 -132.253906 139.296875 -140.421875 C 139.171875 -148.585938 138.984375 -156.691406 138.734375 -164.734375 C 138.484375 -168.003906 138.359375 -171.460938 138.359375 -175.109375 C 138.359375 -178.753906 138.359375 -182.460938 138.359375 -186.234375 C 134.078125 -181.203125 130.429688 -176.425781 127.421875 -171.90625 C 122.390625 -164.363281 117.800781 -156.507812 113.65625 -148.34375 C 109.507812 -140.175781 105.804688 -131.945312 102.546875 -123.65625 C 102.285156 -122.644531 101.96875 -121.570312 101.59375 -120.4375 C 101.21875 -119.3125 100.78125 -118.242188 100.28125 -117.234375 Z M 100.28125 -117.234375 "/></g></g></g><g fill="#000000" fill-opacity="0.4"><g transform="translate(684.857129, 332.516507)"><g><path d="M 165.875 -228.453125 C 166.875 -235.492188 169.507812 -240.644531 173.78125 -243.90625 C 178.0625 -247.175781 183.023438 -248.8125 188.671875 -248.8125 C 194.328125 -248.8125 199.796875 -247.300781 205.078125 -244.28125 C 210.359375 -241.269531 214.503906 -237.125 217.515625 -231.84375 C 220.535156 -226.5625 221.539062 -220.40625 220.53125 -213.375 C 210.226562 -144.007812 197.410156 -75.144531 182.078125 -6.78125 C 180.828125 -1.25 178 3.269531 173.59375 6.78125 C 169.195312 10.300781 164.109375 12.5 158.328125 13.375 C 152.546875 14.257812 147.078125 13.632812 141.921875 11.5 C 136.773438 9.363281 132.945312 5.53125 130.4375 0 C 124.65625 -13.820312 118.75 -27.582031 112.71875 -41.28125 C 106.6875 -54.976562 100.65625 -68.613281 94.625 -82.1875 C 90.851562 -65.84375 87.207031 -49.441406 83.6875 -32.984375 C 80.164062 -16.523438 76.898438 -0.128906 73.890625 16.203125 C 72.628906 23.492188 69.738281 28.769531 65.21875 32.03125 C 60.695312 35.300781 55.609375 36.875 49.953125 36.75 C 44.296875 36.625 38.890625 35.113281 33.734375 32.21875 C 28.585938 29.332031 24.566406 25.25 21.671875 19.96875 C 18.785156 14.695312 18.097656 8.414062 19.609375 1.125 C 30.660156 -58.6875 44.226562 -118 60.3125 -176.8125 C 61.820312 -182.082031 64.835938 -186.476562 69.359375 -190 C 73.890625 -193.519531 78.976562 -195.78125 84.625 -196.78125 C 90.28125 -197.789062 95.617188 -197.289062 100.640625 -195.28125 C 105.671875 -193.269531 109.445312 -189.375 111.96875 -183.59375 L 145.140625 -107.0625 C 149.160156 -127.164062 152.863281 -147.332031 156.25 -167.5625 C 159.644531 -187.800781 162.851562 -208.097656 165.875 -228.453125 Z M 165.875 -228.453125 "/></g></g></g><g fill="#000000" fill-opacity="0.4"><g transform="translate(924.602891, 332.516507)"><g><path d="M 171.15625 -157.203125 C 187.988281 -157.453125 200.925781 -153.429688 209.96875 -145.140625 C 219.019531 -136.847656 223.171875 -124.03125 222.421875 -106.6875 C 221.921875 -91.601562 218.085938 -77.210938 210.921875 -63.515625 C 203.753906 -49.816406 194.015625 -38.695312 181.703125 -30.15625 C 168.128906 -20.601562 153.363281 -15.578125 137.40625 -15.078125 C 121.445312 -14.578125 105.800781 -16.585938 90.46875 -21.109375 C 71.875 -26.390625 57.046875 -34.617188 45.984375 -45.796875 C 34.929688 -56.984375 27.332031 -70.113281 23.1875 -85.1875 C 19.039062 -100.269531 17.78125 -116.101562 19.40625 -132.6875 C 21.039062 -149.28125 25.1875 -165.742188 31.84375 -182.078125 C 38.507812 -198.421875 47.117188 -213.503906 57.671875 -227.328125 C 68.234375 -241.148438 80.363281 -252.769531 94.0625 -262.1875 C 107.757812 -271.613281 122.585938 -277.707031 138.546875 -280.46875 C 154.503906 -283.238281 170.898438 -281.609375 187.734375 -275.578125 C 194.773438 -273.316406 199.800781 -269.609375 202.8125 -264.453125 C 205.832031 -259.296875 207.28125 -253.765625 207.15625 -247.859375 C 207.03125 -241.960938 205.582031 -236.5625 202.8125 -231.65625 C 200.050781 -226.757812 196.09375 -223.175781 190.9375 -220.90625 C 185.789062 -218.644531 179.820312 -218.773438 173.03125 -221.296875 C 160.96875 -225.316406 149.34375 -225.25 138.15625 -221.09375 C 126.976562 -216.945312 116.800781 -209.972656 107.625 -200.171875 C 98.457031 -190.367188 90.984375 -179.25 85.203125 -166.8125 C 79.421875 -154.375 75.898438 -141.804688 74.640625 -129.109375 C 73.390625 -116.421875 75.148438 -105.175781 79.921875 -95.375 C 82.679688 -89.59375 87.140625 -84.691406 93.296875 -80.671875 C 99.460938 -76.648438 106.375 -73.820312 114.03125 -72.1875 C 121.695312 -70.550781 129.113281 -70.300781 136.28125 -71.4375 C 143.445312 -72.570312 149.414062 -75.523438 154.1875 -80.296875 C 157.707031 -84.066406 160.597656 -88.59375 162.859375 -93.875 C 163.109375 -94.625 163.296875 -95.5625 163.421875 -96.6875 C 163.546875 -97.820312 163.734375 -99.019531 163.984375 -100.28125 C 163.734375 -100.28125 163.421875 -100.28125 163.046875 -100.28125 C 162.671875 -100.28125 162.359375 -100.28125 162.109375 -100.28125 C 161.097656 -100.28125 160.148438 -100.28125 159.265625 -100.28125 C 158.390625 -100.28125 157.453125 -100.28125 156.453125 -100.28125 C 152.179688 -95.75 146.648438 -92.914062 139.859375 -91.78125 C 133.078125 -90.65625 126.476562 -91.535156 120.0625 -94.421875 C 113.65625 -97.316406 109.070312 -102.660156 106.3125 -110.453125 C 102.539062 -121.265625 102.410156 -129.8125 105.921875 -136.09375 C 109.441406 -142.375 115.035156 -146.957031 122.703125 -149.84375 C 130.367188 -152.738281 138.660156 -154.625 147.578125 -155.5 C 156.503906 -156.382812 164.363281 -156.953125 171.15625 -157.203125 Z M 171.15625 -157.203125 "/></g></g></g><g fill="#ff914d" fill-opacity="1"><g transform="translate(3.616953, 315.854549)"><g><path d="M 188.484375 -237.5 C 180.953125 -224.9375 172.847656 -212.367188 164.171875 -199.796875 C 155.503906 -187.234375 145.515625 -176.050781 134.203125 -166.25 C 158.328125 -138.851562 172.023438 -106.179688 175.296875 -68.234375 C 175.796875 -60.941406 174.347656 -55.160156 170.953125 -50.890625 C 167.566406 -46.617188 163.171875 -43.726562 157.765625 -42.21875 C 152.359375 -40.707031 146.765625 -40.707031 140.984375 -42.21875 C 135.210938 -43.726562 130.1875 -46.679688 125.90625 -51.078125 C 121.632812 -55.472656 119.25 -61.191406 118.75 -68.234375 C 117.488281 -81.554688 113.84375 -94.3125 107.8125 -106.5 C 101.78125 -118.6875 93.863281 -129.175781 84.0625 -137.96875 C 81.550781 -106.300781 78.160156 -74.765625 73.890625 -43.359375 C 73.140625 -38.328125 70.816406 -34.113281 66.921875 -30.71875 C 63.023438 -27.332031 58.5 -25.007812 53.34375 -23.75 C 48.1875 -22.488281 43.347656 -22.488281 38.828125 -23.75 C 30.785156 -26.007812 25.253906 -30.46875 22.234375 -37.125 C 19.222656 -43.789062 18.21875 -50.894531 19.21875 -58.4375 C 24 -94.125 27.582031 -129.9375 29.96875 -165.875 C 32.351562 -201.8125 33.671875 -237.875 33.921875 -274.0625 C 33.921875 -281.351562 35.804688 -287.132812 39.578125 -291.40625 C 43.347656 -295.675781 48.0625 -298.566406 53.71875 -300.078125 C 59.375 -301.585938 65.03125 -301.585938 70.6875 -300.078125 C 76.34375 -298.566406 81.050781 -295.675781 84.8125 -291.40625 C 88.582031 -287.132812 90.46875 -281.351562 90.46875 -274.0625 C 90.21875 -261.75 89.96875 -249.5 89.71875 -237.3125 C 89.46875 -225.125 88.96875 -212.875 88.21875 -200.5625 C 95.757812 -204.832031 102.671875 -210.863281 108.953125 -218.65625 C 115.234375 -226.445312 120.882812 -234.613281 125.90625 -243.15625 C 130.9375 -251.695312 135.460938 -259.363281 139.484375 -266.15625 C 143.253906 -272.4375 147.835938 -276.519531 153.234375 -278.40625 C 158.640625 -280.289062 164.171875 -280.414062 169.828125 -278.78125 C 175.484375 -277.144531 180.382812 -274.316406 184.53125 -270.296875 C 188.675781 -266.273438 191.25 -261.375 192.25 -255.59375 C 193.257812 -249.8125 192.003906 -243.78125 188.484375 -237.5 Z M 188.484375 -237.5 "/></g></g></g><g fill="#ff914d" fill-opacity="1"><g transform="translate(214.713836, 315.854549)"><g><path d="M 161.71875 -263.515625 C 162.976562 -270.546875 165.867188 -275.695312 170.390625 -278.96875 C 174.921875 -282.238281 180.007812 -283.875 185.65625 -283.875 C 191.3125 -283.875 196.71875 -282.363281 201.875 -279.34375 C 207.03125 -276.332031 211.050781 -272.1875 213.9375 -266.90625 C 216.832031 -261.625 217.523438 -255.46875 216.015625 -248.4375 C 202.441406 -179.070312 193.140625 -109.203125 188.109375 -38.828125 C 187.609375 -31.796875 185.285156 -26.078125 181.140625 -21.671875 C 176.992188 -17.273438 172.03125 -14.320312 166.25 -12.8125 C 160.46875 -11.3125 154.875 -11.3125 149.46875 -12.8125 C 144.070312 -14.320312 139.613281 -17.210938 136.09375 -21.484375 C 132.570312 -25.753906 131.0625 -31.535156 131.5625 -38.828125 C 132.320312 -50.640625 133.265625 -62.453125 134.390625 -74.265625 C 135.523438 -86.078125 136.71875 -97.890625 137.96875 -109.703125 L 86.328125 -109.703125 C 84.566406 -94.617188 82.804688 -79.597656 81.046875 -64.640625 C 79.285156 -49.691406 77.53125 -34.804688 75.78125 -19.984375 C 74.769531 -12.691406 72.128906 -6.910156 67.859375 -2.640625 C 63.585938 1.628906 58.5625 4.457031 52.78125 5.84375 C 47 7.226562 41.34375 7.226562 35.8125 5.84375 C 30.28125 4.457031 25.878906 1.628906 22.609375 -2.640625 C 19.347656 -6.910156 18.21875 -12.691406 19.21875 -19.984375 C 21.488281 -40.585938 23.878906 -61.253906 26.390625 -81.984375 C 28.898438 -102.722656 31.285156 -123.523438 33.546875 -144.390625 C 34.804688 -154.191406 36 -164.117188 37.125 -174.171875 C 38.257812 -184.222656 39.457031 -194.273438 40.71875 -204.328125 C 41.71875 -213.117188 42.53125 -222.414062 43.15625 -232.21875 C 43.789062 -242.019531 45.742188 -251.066406 49.015625 -259.359375 C 51.523438 -266.148438 55.351562 -271.113281 60.5 -274.25 C 65.65625 -277.394531 71.1875 -278.90625 77.09375 -278.78125 C 83 -278.65625 88.460938 -277.144531 93.484375 -274.25 C 98.515625 -271.363281 102.097656 -267.40625 104.234375 -262.375 C 106.367188 -257.351562 106.054688 -251.320312 103.296875 -244.28125 C 100.273438 -236.238281 98.515625 -227.378906 98.015625 -217.703125 C 97.515625 -208.023438 96.757812 -198.914062 95.75 -190.375 C 95.25 -186.351562 94.742188 -182.332031 94.234375 -178.3125 C 93.734375 -174.289062 93.234375 -170.269531 92.734375 -166.25 L 145.140625 -166.25 C 147.398438 -182.332031 149.910156 -198.539062 152.671875 -214.875 C 155.441406 -231.21875 158.457031 -247.429688 161.71875 -263.515625 Z M 161.71875 -263.515625 "/></g></g></g><g fill="#ff914d" fill-opacity="1"><g transform="translate(450.313021, 315.854549)"><g><path d="M 195.28125 -164.734375 C 196.03125 -139.859375 196.65625 -114.851562 197.15625 -89.71875 C 197.664062 -64.59375 198.296875 -39.460938 199.046875 -14.328125 C 199.296875 -7.035156 197.535156 -1.191406 193.765625 3.203125 C 189.992188 7.597656 185.34375 10.488281 179.8125 11.875 C 174.289062 13.257812 168.703125 13.257812 163.046875 11.875 C 157.390625 10.488281 152.613281 7.597656 148.71875 3.203125 C 144.820312 -1.191406 142.75 -7.035156 142.5 -14.328125 C 142.25 -21.867188 142.0625 -29.34375 141.9375 -36.75 C 141.8125 -44.164062 141.625 -51.644531 141.375 -59.1875 L 84.828125 -61.453125 C 82.816406 -51.898438 80.929688 -42.410156 79.171875 -32.984375 C 77.410156 -23.554688 75.648438 -14.070312 73.890625 -4.53125 C 72.628906 2.757812 69.800781 8.035156 65.40625 11.296875 C 61.007812 14.566406 55.921875 16.140625 50.140625 16.015625 C 44.359375 15.890625 38.890625 14.378906 33.734375 11.484375 C 28.585938 8.597656 24.566406 4.519531 21.671875 -0.75 C 18.785156 -6.03125 17.96875 -12.316406 19.21875 -19.609375 C 23.75 -44.234375 28.835938 -68.609375 34.484375 -92.734375 C 40.140625 -116.859375 48.125 -140.359375 58.4375 -163.234375 C 63.457031 -174.546875 69.863281 -186.734375 77.65625 -199.796875 C 85.445312 -212.867188 94.304688 -224.867188 104.234375 -235.796875 C 114.160156 -246.734375 125.15625 -254.71875 137.21875 -259.75 C 148.53125 -264.519531 157.703125 -265.394531 164.734375 -262.375 C 171.773438 -259.363281 177.304688 -253.960938 181.328125 -246.171875 C 185.347656 -238.378906 188.300781 -229.394531 190.1875 -219.21875 C 192.070312 -209.039062 193.328125 -199.050781 193.953125 -189.25 C 194.585938 -179.445312 195.03125 -171.273438 195.28125 -164.734375 Z M 100.28125 -117.234375 C 107.0625 -116.984375 113.71875 -116.734375 120.25 -116.484375 C 126.789062 -116.234375 133.328125 -115.984375 139.859375 -115.734375 C 139.609375 -124.023438 139.421875 -132.253906 139.296875 -140.421875 C 139.171875 -148.585938 138.984375 -156.691406 138.734375 -164.734375 C 138.484375 -168.003906 138.359375 -171.460938 138.359375 -175.109375 C 138.359375 -178.753906 138.359375 -182.460938 138.359375 -186.234375 C 134.078125 -181.203125 130.429688 -176.425781 127.421875 -171.90625 C 122.390625 -164.363281 117.800781 -156.507812 113.65625 -148.34375 C 109.507812 -140.175781 105.804688 -131.945312 102.546875 -123.65625 C 102.285156 -122.644531 101.96875 -121.570312 101.59375 -120.4375 C 101.21875 -119.3125 100.78125 -118.242188 100.28125 -117.234375 Z M 100.28125 -117.234375 "/></g></g></g><g fill="#ff914d" fill-opacity="1"><g transform="translate(668.195146, 315.854549)"><g><path d="M 165.875 -228.453125 C 166.875 -235.492188 169.507812 -240.644531 173.78125 -243.90625 C 178.0625 -247.175781 183.023438 -248.8125 188.671875 -248.8125 C 194.328125 -248.8125 199.796875 -247.300781 205.078125 -244.28125 C 210.359375 -241.269531 214.503906 -237.125 217.515625 -231.84375 C 220.535156 -226.5625 221.539062 -220.40625 220.53125 -213.375 C 210.226562 -144.007812 197.410156 -75.144531 182.078125 -6.78125 C 180.828125 -1.25 178 3.269531 173.59375 6.78125 C 169.195312 10.300781 164.109375 12.5 158.328125 13.375 C 152.546875 14.257812 147.078125 13.632812 141.921875 11.5 C 136.773438 9.363281 132.945312 5.53125 130.4375 0 C 124.65625 -13.820312 118.75 -27.582031 112.71875 -41.28125 C 106.6875 -54.976562 100.65625 -68.613281 94.625 -82.1875 C 90.851562 -65.84375 87.207031 -49.441406 83.6875 -32.984375 C 80.164062 -16.523438 76.898438 -0.128906 73.890625 16.203125 C 72.628906 23.492188 69.738281 28.769531 65.21875 32.03125 C 60.695312 35.300781 55.609375 36.875 49.953125 36.75 C 44.296875 36.625 38.890625 35.113281 33.734375 32.21875 C 28.585938 29.332031 24.566406 25.25 21.671875 19.96875 C 18.785156 14.695312 18.097656 8.414062 19.609375 1.125 C 30.660156 -58.6875 44.226562 -118 60.3125 -176.8125 C 61.820312 -182.082031 64.835938 -186.476562 69.359375 -190 C 73.890625 -193.519531 78.976562 -195.78125 84.625 -196.78125 C 90.28125 -197.789062 95.617188 -197.289062 100.640625 -195.28125 C 105.671875 -193.269531 109.445312 -189.375 111.96875 -183.59375 L 145.140625 -107.0625 C 149.160156 -127.164062 152.863281 -147.332031 156.25 -167.5625 C 159.644531 -187.800781 162.851562 -208.097656 165.875 -228.453125 Z M 165.875 -228.453125 "/></g></g></g><g fill="#ff914d" fill-opacity="1"><g transform="translate(907.940909, 315.854549)"><g><path d="M 171.15625 -157.203125 C 187.988281 -157.453125 200.925781 -153.429688 209.96875 -145.140625 C 219.019531 -136.847656 223.171875 -124.03125 222.421875 -106.6875 C 221.921875 -91.601562 218.085938 -77.210938 210.921875 -63.515625 C 203.753906 -49.816406 194.015625 -38.695312 181.703125 -30.15625 C 168.128906 -20.601562 153.363281 -15.578125 137.40625 -15.078125 C 121.445312 -14.578125 105.800781 -16.585938 90.46875 -21.109375 C 71.875 -26.390625 57.046875 -34.617188 45.984375 -45.796875 C 34.929688 -56.984375 27.332031 -70.113281 23.1875 -85.1875 C 19.039062 -100.269531 17.78125 -116.101562 19.40625 -132.6875 C 21.039062 -149.28125 25.1875 -165.742188 31.84375 -182.078125 C 38.507812 -198.421875 47.117188 -213.503906 57.671875 -227.328125 C 68.234375 -241.148438 80.363281 -252.769531 94.0625 -262.1875 C 107.757812 -271.613281 122.585938 -277.707031 138.546875 -280.46875 C 154.503906 -283.238281 170.898438 -281.609375 187.734375 -275.578125 C 194.773438 -273.316406 199.800781 -269.609375 202.8125 -264.453125 C 205.832031 -259.296875 207.28125 -253.765625 207.15625 -247.859375 C 207.03125 -241.960938 205.582031 -236.5625 202.8125 -231.65625 C 200.050781 -226.757812 196.09375 -223.175781 190.9375 -220.90625 C 185.789062 -218.644531 179.820312 -218.773438 173.03125 -221.296875 C 160.96875 -225.316406 149.34375 -225.25 138.15625 -221.09375 C 126.976562 -216.945312 116.800781 -209.972656 107.625 -200.171875 C 98.457031 -190.367188 90.984375 -179.25 85.203125 -166.8125 C 79.421875 -154.375 75.898438 -141.804688 74.640625 -129.109375 C 73.390625 -116.421875 75.148438 -105.175781 79.921875 -95.375 C 82.679688 -89.59375 87.140625 -84.691406 93.296875 -80.671875 C 99.460938 -76.648438 106.375 -73.820312 114.03125 -72.1875 C 121.695312 -70.550781 129.113281 -70.300781 136.28125 -71.4375 C 143.445312 -72.570312 149.414062 -75.523438 154.1875 -80.296875 C 157.707031 -84.066406 160.597656 -88.59375 162.859375 -93.875 C 163.109375 -94.625 163.296875 -95.5625 163.421875 -96.6875 C 163.546875 -97.820312 163.734375 -99.019531 163.984375 -100.28125 C 163.734375 -100.28125 163.421875 -100.28125 163.046875 -100.28125 C 162.671875 -100.28125 162.359375 -100.28125 162.109375 -100.28125 C 161.097656 -100.28125 160.148438 -100.28125 159.265625 -100.28125 C 158.390625 -100.28125 157.453125 -100.28125 156.453125 -100.28125 C 152.179688 -95.75 146.648438 -92.914062 139.859375 -91.78125 C 133.078125 -90.65625 126.476562 -91.535156 120.0625 -94.421875 C 113.65625 -97.316406 109.070312 -102.660156 106.3125 -110.453125 C 102.539062 -121.265625 102.410156 -129.8125 105.921875 -136.09375 C 109.441406 -142.375 115.035156 -146.957031 122.703125 -149.84375 C 130.367188 -152.738281 138.660156 -154.625 147.578125 -155.5 C 156.503906 -156.382812 164.363281 -156.953125 171.15625 -157.203125 Z M 171.15625 -157.203125 "/></g></g></g><g fill="#ff914d" fill-opacity="1"><g transform="translate(1149.249785, 315.854549)"><g/></g></g></g></g></g><g clip-path="url(#d6ba32f4f8)"><g transform="matrix(1, 0, 0, 1, 174, 316)"><g clip-path="url(#389726eb61)"><g fill="#000000" fill-opacity="0.4"><g transform="translate(20.773953, 388.925232)"><g><path d="M 140.609375 -162.859375 C 154.679688 -153.304688 165.800781 -140.863281 173.96875 -125.53125 C 182.144531 -110.207031 185.351562 -93.875 183.59375 -76.53125 C 181.832031 -61.445312 176.675781 -48.5 168.125 -37.6875 C 159.582031 -26.882812 149.09375 -18.46875 136.65625 -12.4375 C 124.21875 -6.40625 111.023438 -3.078125 97.078125 -2.453125 C 83.128906 -1.828125 69.742188 -4.148438 56.921875 -9.421875 C 44.109375 -14.703125 33.300781 -23.25 24.5 -35.0625 C 19.976562 -40.84375 18.09375 -46.429688 18.84375 -51.828125 C 19.601562 -57.234375 21.929688 -61.945312 25.828125 -65.96875 C 29.722656 -69.988281 34.5625 -72.816406 40.34375 -74.453125 C 46.125 -76.085938 51.960938 -76.148438 57.859375 -74.640625 C 63.765625 -73.128906 68.859375 -69.484375 73.140625 -63.703125 C 75.148438 -60.941406 78.914062 -59.375 84.4375 -59 C 89.96875 -58.625 95.5 -58.875 101.03125 -59.75 C 106.5625 -60.632812 110.457031 -61.578125 112.71875 -62.578125 C 118 -65.085938 121.957031 -68.789062 124.59375 -73.6875 C 127.226562 -78.59375 128.171875 -83.9375 127.421875 -89.71875 C 126.671875 -96.757812 124.15625 -102.539062 119.875 -107.0625 C 115.601562 -111.582031 110.515625 -115.539062 104.609375 -118.9375 C 98.703125 -122.332031 92.734375 -125.597656 86.703125 -128.734375 C 80.671875 -131.878906 75.394531 -135.335938 70.875 -139.109375 C 58.3125 -150.160156 50.644531 -162.160156 47.875 -175.109375 C 45.113281 -188.054688 46.054688 -201 50.703125 -213.9375 C 55.347656 -226.882812 62.570312 -238.632812 72.375 -249.1875 C 82.175781 -259.738281 93.363281 -267.90625 105.9375 -273.6875 C 112.71875 -276.957031 119 -277.835938 124.78125 -276.328125 C 130.5625 -274.816406 135.523438 -271.988281 139.671875 -267.84375 C 143.816406 -263.695312 146.644531 -258.859375 148.15625 -253.328125 C 149.664062 -247.804688 149.414062 -242.46875 147.40625 -237.3125 C 145.394531 -232.15625 141.117188 -228.070312 134.578125 -225.0625 C 130.304688 -223.050781 125.34375 -220.285156 119.6875 -216.765625 C 114.03125 -213.242188 109.378906 -209.03125 105.734375 -204.125 C 102.097656 -199.226562 101.410156 -193.765625 103.671875 -187.734375 C 104.929688 -183.710938 107.882812 -180.253906 112.53125 -177.359375 C 117.175781 -174.472656 122.140625 -171.898438 127.421875 -169.640625 C 132.703125 -167.378906 137.097656 -165.117188 140.609375 -162.859375 Z M 140.609375 -162.859375 "/></g></g></g><g fill="#000000" fill-opacity="0.4"><g transform="translate(223.577755, 388.925232)"><g><path d="M 195.28125 -164.734375 C 196.03125 -139.859375 196.65625 -114.851562 197.15625 -89.71875 C 197.664062 -64.59375 198.296875 -39.460938 199.046875 -14.328125 C 199.296875 -7.035156 197.535156 -1.191406 193.765625 3.203125 C 189.992188 7.597656 185.34375 10.488281 179.8125 11.875 C 174.289062 13.257812 168.703125 13.257812 163.046875 11.875 C 157.390625 10.488281 152.613281 7.597656 148.71875 3.203125 C 144.820312 -1.191406 142.75 -7.035156 142.5 -14.328125 C 142.25 -21.867188 142.0625 -29.34375 141.9375 -36.75 C 141.8125 -44.164062 141.625 -51.644531 141.375 -59.1875 L 84.828125 -61.453125 C 82.816406 -51.898438 80.929688 -42.410156 79.171875 -32.984375 C 77.410156 -23.554688 75.648438 -14.070312 73.890625 -4.53125 C 72.628906 2.757812 69.800781 8.035156 65.40625 11.296875 C 61.007812 14.566406 55.921875 16.140625 50.140625 16.015625 C 44.359375 15.890625 38.890625 14.378906 33.734375 11.484375 C 28.585938 8.597656 24.566406 4.519531 21.671875 -0.75 C 18.785156 -6.03125 17.96875 -12.316406 19.21875 -19.609375 C 23.75 -44.234375 28.835938 -68.609375 34.484375 -92.734375 C 40.140625 -116.859375 48.125 -140.359375 58.4375 -163.234375 C 63.457031 -174.546875 69.863281 -186.734375 77.65625 -199.796875 C 85.445312 -212.867188 94.304688 -224.867188 104.234375 -235.796875 C 114.160156 -246.734375 125.15625 -254.71875 137.21875 -259.75 C 148.53125 -264.519531 157.703125 -265.394531 164.734375 -262.375 C 171.773438 -259.363281 177.304688 -253.960938 181.328125 -246.171875 C 185.347656 -238.378906 188.300781 -229.394531 190.1875 -219.21875 C 192.070312 -209.039062 193.328125 -199.050781 193.953125 -189.25 C 194.585938 -179.445312 195.03125 -171.273438 195.28125 -164.734375 Z M 100.28125 -117.234375 C 107.0625 -116.984375 113.71875 -116.734375 120.25 -116.484375 C 126.789062 -116.234375 133.328125 -115.984375 139.859375 -115.734375 C 139.609375 -124.023438 139.421875 -132.253906 139.296875 -140.421875 C 139.171875 -148.585938 138.984375 -156.691406 138.734375 -164.734375 C 138.484375 -168.003906 138.359375 -171.460938 138.359375 -175.109375 C 138.359375 -178.753906 138.359375 -182.460938 138.359375 -186.234375 C 134.078125 -181.203125 130.429688 -176.425781 127.421875 -171.90625 C 122.390625 -164.363281 117.800781 -156.507812 113.65625 -148.34375 C 109.507812 -140.175781 105.804688 -131.945312 102.546875 -123.65625 C 102.285156 -122.644531 101.96875 -121.570312 101.59375 -120.4375 C 101.21875 -119.3125 100.78125 -118.242188 100.28125 -117.234375 Z M 100.28125 -117.234375 "/></g></g></g><g fill="#000000" fill-opacity="0.4"><g transform="translate(441.45988, 388.925232)"><g><path d="M 157.203125 -79.546875 C 164.492188 -79.296875 170.335938 -77.160156 174.734375 -73.140625 C 179.128906 -69.117188 182.015625 -64.28125 183.390625 -58.625 C 184.773438 -52.96875 184.773438 -47.375 183.390625 -41.84375 C 182.015625 -36.3125 179.128906 -31.722656 174.734375 -28.078125 C 170.335938 -24.441406 164.492188 -22.75 157.203125 -23 C 140.109375 -23.75 123.015625 -23.679688 105.921875 -22.796875 C 88.835938 -21.921875 71.75 -20.101562 54.65625 -17.34375 C 49.382812 -16.582031 43.859375 -17.144531 38.078125 -19.03125 C 32.296875 -20.914062 27.457031 -23.992188 23.5625 -28.265625 C 19.664062 -32.546875 18.21875 -38.078125 19.21875 -44.859375 C 23.5 -79.546875 28.210938 -114.226562 33.359375 -148.90625 C 38.515625 -183.59375 44.109375 -218.273438 50.140625 -252.953125 C 50.890625 -257.222656 52.394531 -260.867188 54.65625 -263.890625 C 56.664062 -267.410156 59.554688 -270.363281 63.328125 -272.75 C 67.097656 -275.132812 71.75 -276.453125 77.28125 -276.703125 C 104.425781 -277.460938 131.566406 -276.960938 158.703125 -275.203125 C 165.992188 -274.691406 171.835938 -272.363281 176.234375 -268.21875 C 180.640625 -264.070312 183.53125 -259.171875 184.90625 -253.515625 C 186.289062 -247.867188 186.289062 -242.28125 184.90625 -236.75 C 183.53125 -231.21875 180.640625 -226.691406 176.234375 -223.171875 C 171.835938 -219.648438 165.992188 -218.144531 158.703125 -218.65625 C 140.109375 -219.90625 121.132812 -220.53125 101.78125 -220.53125 C 100.53125 -213.25 99.273438 -205.960938 98.015625 -198.671875 C 96.753906 -191.378906 95.625 -184.09375 94.625 -176.8125 C 104.925781 -176.550781 114.851562 -175.921875 124.40625 -174.921875 C 131.945312 -174.171875 138.539062 -171.34375 144.1875 -166.4375 C 149.84375 -161.539062 152.671875 -154.941406 152.671875 -146.640625 C 152.671875 -141.867188 151.351562 -137.21875 148.71875 -132.6875 C 146.082031 -128.164062 142.625 -124.523438 138.34375 -121.765625 C 134.070312 -119.003906 129.425781 -117.875 124.40625 -118.375 C 111.582031 -119.632812 98.765625 -120.265625 85.953125 -120.265625 C 84.941406 -113.222656 83.929688 -106.054688 82.921875 -98.765625 C 81.921875 -91.484375 80.921875 -84.320312 79.921875 -77.28125 C 92.734375 -78.539062 105.546875 -79.359375 118.359375 -79.734375 C 131.179688 -80.109375 144.128906 -80.046875 157.203125 -79.546875 Z M 157.203125 -79.546875 "/></g></g></g><g fill="#000000" fill-opacity="0.4"><g transform="translate(646.148464, 388.925232)"><g><path d="M 231.84375 -205.828125 C 234.101562 -194.773438 233.472656 -184.847656 229.953125 -176.046875 C 226.441406 -167.253906 220.851562 -159.523438 213.1875 -152.859375 C 205.519531 -146.203125 196.660156 -140.488281 186.609375 -135.71875 C 189.617188 -131.1875 191.941406 -126.21875 193.578125 -120.8125 C 195.210938 -115.414062 196.03125 -109.453125 196.03125 -102.921875 C 196.28125 -90.859375 193.828125 -79.796875 188.671875 -69.734375 C 183.523438 -59.679688 176.613281 -50.757812 167.9375 -42.96875 C 159.269531 -35.1875 149.59375 -28.90625 138.90625 -24.125 C 128.226562 -19.351562 117.488281 -16.335938 106.6875 -15.078125 C 91.101562 -13.066406 76.523438 -14.507812 62.953125 -19.40625 C 49.378906 -24.3125 38.507812 -32.289062 30.34375 -43.34375 C 22.175781 -54.40625 18.34375 -68.359375 18.84375 -85.203125 C 19.601562 -112.847656 22.367188 -140.617188 27.140625 -168.515625 C 31.921875 -196.410156 36.191406 -224.054688 39.953125 -251.453125 C 40.960938 -258.234375 44.734375 -263.507812 51.265625 -267.28125 C 57.804688 -271.050781 64.21875 -272.5625 70.5 -271.8125 C 71.5 -272.3125 72.378906 -272.6875 73.140625 -272.9375 C 83.941406 -276.957031 95.8125 -279.21875 108.75 -279.71875 C 121.695312 -280.21875 134.769531 -279.023438 147.96875 -276.140625 C 161.164062 -273.253906 173.601562 -268.726562 185.28125 -262.5625 C 196.96875 -256.40625 206.957031 -248.613281 215.25 -239.1875 C 223.550781 -229.769531 229.082031 -218.648438 231.84375 -205.828125 Z M 131.5625 -86.328125 C 137.34375 -92.609375 139.789062 -97.695312 138.90625 -101.59375 C 138.03125 -105.488281 135.207031 -108.378906 130.4375 -110.265625 C 125.664062 -112.148438 120.132812 -113.40625 113.84375 -114.03125 C 107.5625 -114.664062 101.910156 -115.109375 96.890625 -115.359375 C 94.878906 -115.109375 92.992188 -115.109375 91.234375 -115.359375 C 86.703125 -115.359375 82.554688 -116.238281 78.796875 -118 C 78.535156 -114.726562 78.21875 -111.394531 77.84375 -108 C 77.46875 -104.613281 77.03125 -101.285156 76.53125 -98.015625 C 76.28125 -94.742188 75.773438 -90.46875 75.015625 -85.1875 C 74.265625 -79.914062 75.019531 -76.023438 77.28125 -73.515625 C 80.550781 -70.242188 84.757812 -68.609375 89.90625 -68.609375 C 95.0625 -68.609375 100.398438 -69.550781 105.921875 -71.4375 C 111.453125 -73.320312 116.539062 -75.644531 121.1875 -78.40625 C 125.84375 -81.175781 129.300781 -83.816406 131.5625 -86.328125 Z M 144.390625 -179.828125 C 146.398438 -180.578125 149.914062 -181.894531 154.9375 -183.78125 C 159.96875 -185.664062 164.617188 -187.738281 168.890625 -190 C 173.160156 -192.257812 175.421875 -194.394531 175.671875 -196.40625 C 175.921875 -199.175781 174.285156 -201.878906 170.765625 -204.515625 C 167.253906 -207.148438 163.046875 -209.660156 158.140625 -212.046875 C 153.242188 -214.441406 148.65625 -216.390625 144.375 -217.890625 C 140.101562 -219.398438 137.21875 -220.40625 135.71875 -220.90625 C 127.925781 -223.175781 120.570312 -224.179688 113.65625 -223.921875 C 106.75 -223.671875 99.648438 -222.289062 92.359375 -219.78125 C 91.097656 -211.738281 89.960938 -203.632812 88.953125 -195.46875 C 87.953125 -187.300781 86.953125 -179.195312 85.953125 -171.15625 C 87.710938 -171.40625 89.472656 -171.53125 91.234375 -171.53125 C 92.734375 -171.78125 94.742188 -171.78125 97.265625 -171.53125 C 105.304688 -171.78125 113.222656 -172.53125 121.015625 -173.78125 C 128.804688 -175.039062 136.597656 -177.054688 144.390625 -179.828125 Z M 144.390625 -179.828125 "/></g></g></g><g fill="#000000" fill-opacity="0.4"><g transform="translate(897.956944, 388.925232)"><g><path d="M 79.546875 -341.546875 C 85.578125 -269.421875 85.195312 -197.289062 78.40625 -125.15625 C 77.90625 -117.863281 75.519531 -112.019531 71.25 -107.625 C 66.976562 -103.226562 62.015625 -100.335938 56.359375 -98.953125 C 50.703125 -97.578125 45.109375 -97.578125 39.578125 -98.953125 C 34.054688 -100.335938 29.597656 -103.226562 26.203125 -107.625 C 22.804688 -112.019531 21.359375 -117.863281 21.859375 -125.15625 C 28.648438 -197.289062 29.03125 -269.421875 23 -341.546875 C 22.238281 -348.835938 23.617188 -354.679688 27.140625 -359.078125 C 30.660156 -363.472656 35.117188 -366.363281 40.515625 -367.75 C 45.921875 -369.132812 51.515625 -369.070312 57.296875 -367.5625 C 63.078125 -366.050781 68.039062 -363.160156 72.1875 -358.890625 C 76.332031 -354.617188 78.785156 -348.835938 79.546875 -341.546875 Z M 49.390625 -58.8125 C 53.160156 -59.0625 56.738281 -58.367188 60.125 -56.734375 C 63.519531 -55.097656 66.597656 -53.023438 69.359375 -50.515625 C 72.128906 -48.253906 74.203125 -45.238281 75.578125 -41.46875 C 76.960938 -37.695312 77.65625 -34.050781 77.65625 -30.53125 C 77.65625 -22.738281 74.890625 -16.082031 69.359375 -10.5625 C 69.109375 -10.300781 68.796875 -9.984375 68.421875 -9.609375 C 68.046875 -9.234375 67.609375 -8.796875 67.109375 -8.296875 C 61.828125 -3.015625 55.164062 -0.25 47.125 0 C 43.351562 0.25 39.769531 -0.441406 36.375 -2.078125 C 32.988281 -3.710938 29.910156 -5.785156 27.140625 -8.296875 C 24.628906 -10.804688 22.617188 -13.882812 21.109375 -17.53125 C 19.597656 -21.175781 18.84375 -24.757812 18.84375 -28.28125 C 18.84375 -36.0625 21.609375 -42.71875 27.140625 -48.25 L 29.40625 -50.515625 C 34.6875 -55.796875 41.347656 -58.5625 49.390625 -58.8125 Z M 49.390625 -58.8125 "/></g></g></g><g fill="#7ed957" fill-opacity="1"><g transform="translate(4.111978, 372.263279)"><g><path d="M 140.609375 -162.859375 C 154.679688 -153.304688 165.800781 -140.863281 173.96875 -125.53125 C 182.144531 -110.207031 185.351562 -93.875 183.59375 -76.53125 C 181.832031 -61.445312 176.675781 -48.5 168.125 -37.6875 C 159.582031 -26.882812 149.09375 -18.46875 136.65625 -12.4375 C 124.21875 -6.40625 111.023438 -3.078125 97.078125 -2.453125 C 83.128906 -1.828125 69.742188 -4.148438 56.921875 -9.421875 C 44.109375 -14.703125 33.300781 -23.25 24.5 -35.0625 C 19.976562 -40.84375 18.09375 -46.429688 18.84375 -51.828125 C 19.601562 -57.234375 21.929688 -61.945312 25.828125 -65.96875 C 29.722656 -69.988281 34.5625 -72.816406 40.34375 -74.453125 C 46.125 -76.085938 51.960938 -76.148438 57.859375 -74.640625 C 63.765625 -73.128906 68.859375 -69.484375 73.140625 -63.703125 C 75.148438 -60.941406 78.914062 -59.375 84.4375 -59 C 89.96875 -58.625 95.5 -58.875 101.03125 -59.75 C 106.5625 -60.632812 110.457031 -61.578125 112.71875 -62.578125 C 118 -65.085938 121.957031 -68.789062 124.59375 -73.6875 C 127.226562 -78.59375 128.171875 -83.9375 127.421875 -89.71875 C 126.671875 -96.757812 124.15625 -102.539062 119.875 -107.0625 C 115.601562 -111.582031 110.515625 -115.539062 104.609375 -118.9375 C 98.703125 -122.332031 92.734375 -125.597656 86.703125 -128.734375 C 80.671875 -131.878906 75.394531 -135.335938 70.875 -139.109375 C 58.3125 -150.160156 50.644531 -162.160156 47.875 -175.109375 C 45.113281 -188.054688 46.054688 -201 50.703125 -213.9375 C 55.347656 -226.882812 62.570312 -238.632812 72.375 -249.1875 C 82.175781 -259.738281 93.363281 -267.90625 105.9375 -273.6875 C 112.71875 -276.957031 119 -277.835938 124.78125 -276.328125 C 130.5625 -274.816406 135.523438 -271.988281 139.671875 -267.84375 C 143.816406 -263.695312 146.644531 -258.859375 148.15625 -253.328125 C 149.664062 -247.804688 149.414062 -242.46875 147.40625 -237.3125 C 145.394531 -232.15625 141.117188 -228.070312 134.578125 -225.0625 C 130.304688 -223.050781 125.34375 -220.285156 119.6875 -216.765625 C 114.03125 -213.242188 109.378906 -209.03125 105.734375 -204.125 C 102.097656 -199.226562 101.410156 -193.765625 103.671875 -187.734375 C 104.929688 -183.710938 107.882812 -180.253906 112.53125 -177.359375 C 117.175781 -174.472656 122.140625 -171.898438 127.421875 -169.640625 C 132.703125 -167.378906 137.097656 -165.117188 140.609375 -162.859375 Z M 140.609375 -162.859375 "/></g></g></g><g fill="#7ed957" fill-opacity="1"><g transform="translate(206.915779, 372.263279)"><g><path d="M 195.28125 -164.734375 C 196.03125 -139.859375 196.65625 -114.851562 197.15625 -89.71875 C 197.664062 -64.59375 198.296875 -39.460938 199.046875 -14.328125 C 199.296875 -7.035156 197.535156 -1.191406 193.765625 3.203125 C 189.992188 7.597656 185.34375 10.488281 179.8125 11.875 C 174.289062 13.257812 168.703125 13.257812 163.046875 11.875 C 157.390625 10.488281 152.613281 7.597656 148.71875 3.203125 C 144.820312 -1.191406 142.75 -7.035156 142.5 -14.328125 C 142.25 -21.867188 142.0625 -29.34375 141.9375 -36.75 C 141.8125 -44.164062 141.625 -51.644531 141.375 -59.1875 L 84.828125 -61.453125 C 82.816406 -51.898438 80.929688 -42.410156 79.171875 -32.984375 C 77.410156 -23.554688 75.648438 -14.070312 73.890625 -4.53125 C 72.628906 2.757812 69.800781 8.035156 65.40625 11.296875 C 61.007812 14.566406 55.921875 16.140625 50.140625 16.015625 C 44.359375 15.890625 38.890625 14.378906 33.734375 11.484375 C 28.585938 8.597656 24.566406 4.519531 21.671875 -0.75 C 18.785156 -6.03125 17.96875 -12.316406 19.21875 -19.609375 C 23.75 -44.234375 28.835938 -68.609375 34.484375 -92.734375 C 40.140625 -116.859375 48.125 -140.359375 58.4375 -163.234375 C 63.457031 -174.546875 69.863281 -186.734375 77.65625 -199.796875 C 85.445312 -212.867188 94.304688 -224.867188 104.234375 -235.796875 C 114.160156 -246.734375 125.15625 -254.71875 137.21875 -259.75 C 148.53125 -264.519531 157.703125 -265.394531 164.734375 -262.375 C 171.773438 -259.363281 177.304688 -253.960938 181.328125 -246.171875 C 185.347656 -238.378906 188.300781 -229.394531 190.1875 -219.21875 C 192.070312 -209.039062 193.328125 -199.050781 193.953125 -189.25 C 194.585938 -179.445312 195.03125 -171.273438 195.28125 -164.734375 Z M 100.28125 -117.234375 C 107.0625 -116.984375 113.71875 -116.734375 120.25 -116.484375 C 126.789062 -116.234375 133.328125 -115.984375 139.859375 -115.734375 C 139.609375 -124.023438 139.421875 -132.253906 139.296875 -140.421875 C 139.171875 -148.585938 138.984375 -156.691406 138.734375 -164.734375 C 138.484375 -168.003906 138.359375 -171.460938 138.359375 -175.109375 C 138.359375 -178.753906 138.359375 -182.460938 138.359375 -186.234375 C 134.078125 -181.203125 130.429688 -176.425781 127.421875 -171.90625 C 122.390625 -164.363281 117.800781 -156.507812 113.65625 -148.34375 C 109.507812 -140.175781 105.804688 -131.945312 102.546875 -123.65625 C 102.285156 -122.644531 101.96875 -121.570312 101.59375 -120.4375 C 101.21875 -119.3125 100.78125 -118.242188 100.28125 -117.234375 Z M 100.28125 -117.234375 "/></g></g></g><g fill="#7ed957" fill-opacity="1"><g transform="translate(424.797905, 372.263279)"><g><path d="M 157.203125 -79.546875 C 164.492188 -79.296875 170.335938 -77.160156 174.734375 -73.140625 C 179.128906 -69.117188 182.015625 -64.28125 183.390625 -58.625 C 184.773438 -52.96875 184.773438 -47.375 183.390625 -41.84375 C 182.015625 -36.3125 179.128906 -31.722656 174.734375 -28.078125 C 170.335938 -24.441406 164.492188 -22.75 157.203125 -23 C 140.109375 -23.75 123.015625 -23.679688 105.921875 -22.796875 C 88.835938 -21.921875 71.75 -20.101562 54.65625 -17.34375 C 49.382812 -16.582031 43.859375 -17.144531 38.078125 -19.03125 C 32.296875 -20.914062 27.457031 -23.992188 23.5625 -28.265625 C 19.664062 -32.546875 18.21875 -38.078125 19.21875 -44.859375 C 23.5 -79.546875 28.210938 -114.226562 33.359375 -148.90625 C 38.515625 -183.59375 44.109375 -218.273438 50.140625 -252.953125 C 50.890625 -257.222656 52.394531 -260.867188 54.65625 -263.890625 C 56.664062 -267.410156 59.554688 -270.363281 63.328125 -272.75 C 67.097656 -275.132812 71.75 -276.453125 77.28125 -276.703125 C 104.425781 -277.460938 131.566406 -276.960938 158.703125 -275.203125 C 165.992188 -274.691406 171.835938 -272.363281 176.234375 -268.21875 C 180.640625 -264.070312 183.53125 -259.171875 184.90625 -253.515625 C 186.289062 -247.867188 186.289062 -242.28125 184.90625 -236.75 C 183.53125 -231.21875 180.640625 -226.691406 176.234375 -223.171875 C 171.835938 -219.648438 165.992188 -218.144531 158.703125 -218.65625 C 140.109375 -219.90625 121.132812 -220.53125 101.78125 -220.53125 C 100.53125 -213.25 99.273438 -205.960938 98.015625 -198.671875 C 96.753906 -191.378906 95.625 -184.09375 94.625 -176.8125 C 104.925781 -176.550781 114.851562 -175.921875 124.40625 -174.921875 C 131.945312 -174.171875 138.539062 -171.34375 144.1875 -166.4375 C 149.84375 -161.539062 152.671875 -154.941406 152.671875 -146.640625 C 152.671875 -141.867188 151.351562 -137.21875 148.71875 -132.6875 C 146.082031 -128.164062 142.625 -124.523438 138.34375 -121.765625 C 134.070312 -119.003906 129.425781 -117.875 124.40625 -118.375 C 111.582031 -119.632812 98.765625 -120.265625 85.953125 -120.265625 C 84.941406 -113.222656 83.929688 -106.054688 82.921875 -98.765625 C 81.921875 -91.484375 80.921875 -84.320312 79.921875 -77.28125 C 92.734375 -78.539062 105.546875 -79.359375 118.359375 -79.734375 C 131.179688 -80.109375 144.128906 -80.046875 157.203125 -79.546875 Z M 157.203125 -79.546875 "/></g></g></g><g fill="#7ed957" fill-opacity="1"><g transform="translate(629.486489, 372.263279)"><g><path d="M 231.84375 -205.828125 C 234.101562 -194.773438 233.472656 -184.847656 229.953125 -176.046875 C 226.441406 -167.253906 220.851562 -159.523438 213.1875 -152.859375 C 205.519531 -146.203125 196.660156 -140.488281 186.609375 -135.71875 C 189.617188 -131.1875 191.941406 -126.21875 193.578125 -120.8125 C 195.210938 -115.414062 196.03125 -109.453125 196.03125 -102.921875 C 196.28125 -90.859375 193.828125 -79.796875 188.671875 -69.734375 C 183.523438 -59.679688 176.613281 -50.757812 167.9375 -42.96875 C 159.269531 -35.1875 149.59375 -28.90625 138.90625 -24.125 C 128.226562 -19.351562 117.488281 -16.335938 106.6875 -15.078125 C 91.101562 -13.066406 76.523438 -14.507812 62.953125 -19.40625 C 49.378906 -24.3125 38.507812 -32.289062 30.34375 -43.34375 C 22.175781 -54.40625 18.34375 -68.359375 18.84375 -85.203125 C 19.601562 -112.847656 22.367188 -140.617188 27.140625 -168.515625 C 31.921875 -196.410156 36.191406 -224.054688 39.953125 -251.453125 C 40.960938 -258.234375 44.734375 -263.507812 51.265625 -267.28125 C 57.804688 -271.050781 64.21875 -272.5625 70.5 -271.8125 C 71.5 -272.3125 72.378906 -272.6875 73.140625 -272.9375 C 83.941406 -276.957031 95.8125 -279.21875 108.75 -279.71875 C 121.695312 -280.21875 134.769531 -279.023438 147.96875 -276.140625 C 161.164062 -273.253906 173.601562 -268.726562 185.28125 -262.5625 C 196.96875 -256.40625 206.957031 -248.613281 215.25 -239.1875 C 223.550781 -229.769531 229.082031 -218.648438 231.84375 -205.828125 Z M 131.5625 -86.328125 C 137.34375 -92.609375 139.789062 -97.695312 138.90625 -101.59375 C 138.03125 -105.488281 135.207031 -108.378906 130.4375 -110.265625 C 125.664062 -112.148438 120.132812 -113.40625 113.84375 -114.03125 C 107.5625 -114.664062 101.910156 -115.109375 96.890625 -115.359375 C 94.878906 -115.109375 92.992188 -115.109375 91.234375 -115.359375 C 86.703125 -115.359375 82.554688 -116.238281 78.796875 -118 C 78.535156 -114.726562 78.21875 -111.394531 77.84375 -108 C 77.46875 -104.613281 77.03125 -101.285156 76.53125 -98.015625 C 76.28125 -94.742188 75.773438 -90.46875 75.015625 -85.1875 C 74.265625 -79.914062 75.019531 -76.023438 77.28125 -73.515625 C 80.550781 -70.242188 84.757812 -68.609375 89.90625 -68.609375 C 95.0625 -68.609375 100.398438 -69.550781 105.921875 -71.4375 C 111.453125 -73.320312 116.539062 -75.644531 121.1875 -78.40625 C 125.84375 -81.175781 129.300781 -83.816406 131.5625 -86.328125 Z M 144.390625 -179.828125 C 146.398438 -180.578125 149.914062 -181.894531 154.9375 -183.78125 C 159.96875 -185.664062 164.617188 -187.738281 168.890625 -190 C 173.160156 -192.257812 175.421875 -194.394531 175.671875 -196.40625 C 175.921875 -199.175781 174.285156 -201.878906 170.765625 -204.515625 C 167.253906 -207.148438 163.046875 -209.660156 158.140625 -212.046875 C 153.242188 -214.441406 148.65625 -216.390625 144.375 -217.890625 C 140.101562 -219.398438 137.21875 -220.40625 135.71875 -220.90625 C 127.925781 -223.175781 120.570312 -224.179688 113.65625 -223.921875 C 106.75 -223.671875 99.648438 -222.289062 92.359375 -219.78125 C 91.097656 -211.738281 89.960938 -203.632812 88.953125 -195.46875 C 87.953125 -187.300781 86.953125 -179.195312 85.953125 -171.15625 C 87.710938 -171.40625 89.472656 -171.53125 91.234375 -171.53125 C 92.734375 -171.78125 94.742188 -171.78125 97.265625 -171.53125 C 105.304688 -171.78125 113.222656 -172.53125 121.015625 -173.78125 C 128.804688 -175.039062 136.597656 -177.054688 144.390625 -179.828125 Z M 144.390625 -179.828125 "/></g></g></g><g fill="#7ed957" fill-opacity="1"><g transform="translate(881.294968, 372.263279)"><g><path d="M 79.546875 -341.546875 C 85.578125 -269.421875 85.195312 -197.289062 78.40625 -125.15625 C 77.90625 -117.863281 75.519531 -112.019531 71.25 -107.625 C 66.976562 -103.226562 62.015625 -100.335938 56.359375 -98.953125 C 50.703125 -97.578125 45.109375 -97.578125 39.578125 -98.953125 C 34.054688 -100.335938 29.597656 -103.226562 26.203125 -107.625 C 22.804688 -112.019531 21.359375 -117.863281 21.859375 -125.15625 C 28.648438 -197.289062 29.03125 -269.421875 23 -341.546875 C 22.238281 -348.835938 23.617188 -354.679688 27.140625 -359.078125 C 30.660156 -363.472656 35.117188 -366.363281 40.515625 -367.75 C 45.921875 -369.132812 51.515625 -369.070312 57.296875 -367.5625 C 63.078125 -366.050781 68.039062 -363.160156 72.1875 -358.890625 C 76.332031 -354.617188 78.785156 -348.835938 79.546875 -341.546875 Z M 49.390625 -58.8125 C 53.160156 -59.0625 56.738281 -58.367188 60.125 -56.734375 C 63.519531 -55.097656 66.597656 -53.023438 69.359375 -50.515625 C 72.128906 -48.253906 74.203125 -45.238281 75.578125 -41.46875 C 76.960938 -37.695312 77.65625 -34.050781 77.65625 -30.53125 C 77.65625 -22.738281 74.890625 -16.082031 69.359375 -10.5625 C 69.109375 -10.300781 68.796875 -9.984375 68.421875 -9.609375 C 68.046875 -9.234375 67.609375 -8.796875 67.109375 -8.296875 C 61.828125 -3.015625 55.164062 -0.25 47.125 0 C 43.351562 0.25 39.769531 -0.441406 36.375 -2.078125 C 32.988281 -3.710938 29.910156 -5.785156 27.140625 -8.296875 C 24.628906 -10.804688 22.617188 -13.882812 21.109375 -17.53125 C 19.597656 -21.175781 18.84375 -24.757812 18.84375 -28.28125 C 18.84375 -36.0625 21.609375 -42.71875 27.140625 -48.25 L 29.40625 -50.515625 C 34.6875 -55.796875 41.347656 -58.5625 49.390625 -58.8125 Z M 49.390625 -58.8125 "/></g></g></g><g fill="#7ed957" fill-opacity="1"><g transform="translate(983.838759, 372.263279)"><g/></g></g></g></g></g></g></g></svg>